:SAMPLES-PER-SECOND 30
:FULLY-SPECIFIED
:DEGREES
16
root  70.2573 40.1728 -32.2559 176.185 -84.5481 -175.922
RightUpLeg  -2.3665 -10.3437 -4.11181
RightLeg  11.5741 -5.32215 0.458785
RightFoot  -9.31592 -0.0997079 1.82659
RightToes  -1.74624e-010 0 -3.6325e-017
Spine  0.819971 -0.405808 2.04064
Spine1  8.50484 -0.416562 -0.44047
HEad  1.45482 4.03527 -4.69453
LeftShoulder1  5.51018 -8.57866 -39.3713
LeftArm  -24.7454 16.8086 -17.8458
LeftForeArm  21.6743 -21.7163 -3.46934
LeftHand  -0.244104 0.0205437 5.32207
RightShoulder  4.24166 7.17665 33.7686
RightArm  -11.9183 -12.8847 17.2745
RightForeArm  -1.28001 20.8171 4.90308
RightHand  -0.800437 3.01985 -11.3013
LeftUpLeg  2.71066 7.62709 6.9531
LeftLeg  6.22226 9.7548 -2.88007
LeftFoot  -8.03971 0.171056 -4.24936
LeftToes  1.71891e-010 -1.5102e-010 2.10556e-011
17
root  69.9292 40.1061 -32.6472 176.012 -84.3203 -175.898
RightUpLeg  -1.86133 -10.5398 -3.69361
RightLeg  12.1201 -4.80337 0.486893
RightFoot  -10.1517 -0.085077 1.60116
RightToes  -1.74624e-010 0 -3.6325e-017
Spine  0.776514 -0.725329 1.86638
Spine1  9.34271 -0.877308 0.150969
HEad  1.50942 5.13675 -5.65896
LeftShoulder1  6.26134 -9.31701 -42.4042
LeftArm  -22.8371 16.864 -20.5969
LeftForeArm  22.1005 -20.8591 -3.29716
LeftHand  -0.244104 0.0205437 5.32207
RightShoulder  4.97153 8.05772 36.9899
RightArm  -13.0276 -11.8505 21.0725
RightForeArm  -1.76576 16.8115 5.18618
RightHand  -0.660321 1.14898 -11.8145
LeftUpLeg  3.09619 8.23683 7.53202
LeftLeg  7.10001 9.24238 -2.28967
LeftFoot  -8.70428 0.162909 -4.84015
LeftToes  1.71891e-010 -1.5102e-010 2.10556e-011
18
root  69.5884 39.9697 -33.0348 173.67 -83.8781 -173.54
RightUpLeg  -1.67289 -10.8143 -3.12606
RightLeg  13.076 -4.07599 0.752437
RightFoot  -11.3744 -0.0764551 1.58606
RightToes  -1.74624e-010 0 -3.6325e-017
Spine  0.834638 -0.851036 2.49487
Spine1  10.0429 -1.03036 0.571105
HEad  1.23828 5.68204 -6.64907
LeftShoulder1  6.98413 -9.99253 -45.0815
LeftArm  -21.2472 16.8114 -23.354
LeftForeArm  23.6048 -20.3657 -3.19696
LeftHand  -0.244104 0.0205437 5.32207
RightShoulder  5.74478 8.91234 40.1238
RightArm  -15.2476 -11.1623 24.3686
RightForeArm  -1.05052 12.4561 5.46529
RightHand  -0.706429 1.55051 -11.9879
LeftUpLeg  2.5961 9.97985 8.17925
LeftLeg  9.46592 7.41533 -0.931433
LeftFoot  -10.1093 0.126423 -6.34952
LeftToes  1.71891e-010 -1.5102e-010 2.10556e-011
19
root  69.2696 39.7481 -33.3779 169.421 -83.4293 -168.87
RightUpLeg  -2.24637 -11.2606 -2.28263
RightLeg  14.7434 -3.327 1.08467
RightFoot  -13.1019 -0.0632505 1.66299
RightToes  -1.74624e-010 0 -3.6325e-017
Spine  0.976581 -0.781321 4.34493
Spine1  10.509 -0.73271 0.301058
HEad  0.693539 5.56322 -7.46353
LeftShoulder1  7.62396 -10.649 -46.9915
LeftArm  -20.3097 16.5547 -26.3359
LeftForeArm  24.7806 -19.9298 -3.13675
LeftHand  -0.244104 0.0205437 5.32207
RightShoulder  6.51004 9.659 43.1056
RightArm  -16.5694 -10.9077 27.1682
RightForeArm  1.65702 8.87205 5.2621
RightHand  -0.758344 3.30415 -10.3661
LeftUpLeg  0.065405 11.7903 8.55388
LeftLeg  14.6834 6.29461 1.61922
LeftFoot  -11.4692 0.0624547 -7.92427
LeftToes  1.71891e-010 -1.5102e-010 2.10556e-011
20
root  68.9441 39.5305 -33.6606 165.327 -83.1146 -164.366
RightUpLeg  -2.75424 -11.7392 -1.45836
RightLeg  16.3656 -2.70974 1.28833
RightFoot  -14.7898 -0.04877 1.70796
RightToes  -1.74624e-010 0 -3.6325e-017
Spine  1.48645 -0.531829 6.84628
Spine1  10.82 -0.0453661 -0.710763
HEad  -0.00511898 4.82639 -8.10575
LeftShoulder1  8.1928 -11.3251 -48.2204
LeftArm  -19.7267 16.1596 -29.3204
LeftForeArm  25.5227 -19.522 -3.10946
LeftHand  -0.244104 0.0205437 5.32207
RightShoulder  7.17395 10.2209 45.683
RightArm  -15.9963 -10.9281 29.529
RightForeArm  3.74179 7.13805 5.20879
RightHand  -0.642706 4.07846 -8.09425
LeftUpLeg  -4.05924 9.79527 8.48808
LeftLeg  22.7382 10.1125 5.07723
LeftFoot  -11.2561 0.0694567 -7.30551
LeftToes  1.71891e-010 -1.5102e-010 2.10556e-011
21
root  68.551 39.3787 -33.892 162.403 -83.2025 -161.542
RightUpLeg  -2.33332 -12.0661 -1.06592
RightLeg  17.4524 -2.40369 1.29475
RightFoot  -16.1618 -0.0322609 1.82943
RightToes  -1.74624e-010 0 -3.6325e-017
Spine  2.55132 -0.338096 8.8903
Spine1  11.2286 0.53571 -1.4818
HEad  -0.887021 3.85735 -8.80148
LeftShoulder1  8.62859 -11.8084 -49.1891
LeftArm  -18.9173 15.7512 -31.9414
LeftForeArm  26.1689 -19.194 -3.12826
LeftHand  -0.244104 0.0205437 5.32207
RightShoulder  7.53159 10.5481 46.8742
RightArm  -14.7827 -10.9554 31.6095
RightForeArm  3.58042 7.26724 5.65642
RightHand  -0.439279 2.62374 -6.58231
LeftUpLeg  -8.65094 7.26364 7.99221
LeftLeg  32.2158 13.0556 9.01562
LeftFoot  -9.76245 0.12037 -4.56326
LeftToes  1.71891e-010 -1.5102e-010 2.10556e-011
22
root  68.0579 39.2808 -34.096 161.385 -83.8961 -160.888
RightUpLeg  -1.24618 -12.1952 -1.24344
RightLeg  18.1013 -2.63809 1.16822
RightFoot  -17.3426 -0.0071387 2.10248
RightToes  -1.74624e-010 0 -3.6325e-017
Spine  3.42059 -0.216934 10.1851
Spine1  12.0139 0.967875 -1.9626
HEad  -1.69078 2.72904 -9.09327
LeftShoulder1  9.00971 -12.2659 -49.8736
LeftArm  -17.8951 15.4733 -33.5645
LeftForeArm  25.4284 -18.3523 -3.217
LeftHand  -0.244104 0.0205437 5.32207
RightShoulder  7.58256 10.619 46.9528
RightArm  -13.7706 -10.7551 32.6029
RightForeArm  1.10403 8.06326 6.18717
RightHand  -0.330065 0.194548 -6.98305
LeftUpLeg  -13.0932 5.5659 6.66281
LeftLeg  40.129 11.6417 10.6324
LeftFoot  -8.95687 0.103505 -2.28119
LeftToes  1.71891e-010 -1.5102e-010 2.10556e-011
23
root  67.4682 39.2193 -34.2975 164.74 -84.9339 -164.227
RightUpLeg  -0.233797 -12.145 -1.85381
RightLeg  18.3306 -3.42685 1.02068
RightFoot  -18.3466 0.0175197 2.31848
RightToes  -1.74624e-010 0 -3.6325e-017
Spine  3.72743 -0.00745454 10.8958
Spine1  12.5865 1.47759 -2.65894
HEad  -2.00451 1.60624 -8.57
LeftShoulder1  9.30531 -12.7458 -49.9917
LeftArm  -17.6023 15.5521 -33.8905
LeftForeArm  22.5065 -16.6489 -3.35204
LeftHand  -0.244104 0.0205437 5.32207
RightShoulder  7.4499 10.4829 46.5709
RightArm  -12.3689 -10.4613 32.159
RightForeArm  -1.64876 8.7849 6.64973
RightHand  -0.346991 -1.39382 -9.90315
LeftUpLeg  -17.2841 4.64476 4.48423
LeftLeg  44.3591 8.17992 8.88388
LeftFoot  -9.35517 0.091115 -2.05927
LeftToes  1.71891e-010 -1.5102e-010 2.10556e-011
24
root  66.7993 39.2178 -34.5129 176.023 -85.749 -175.028
RightUpLeg  0.778236 -11.8557 -2.8152
RightLeg  17.6637 -4.4969 1.03037
RightFoot  -18.981 0.027997 2.34463
RightToes  -1.74624e-010 0 -3.6325e-017
Spine  3.94805 0.381778 11.0119
Spine1  12.2558 2.13871 -3.70831
HEad  -1.68499 0.70581 -7.52063
LeftShoulder1  9.47402 -13.1247 -49.7401
LeftArm  -18.04 15.9917 -32.9257
LeftForeArm  19.6092 -14.594 -3.3774
LeftHand  -0.244104 0.0205437 5.32207
RightShoulder  7.27315 10.3157 46.0003
RightArm  -9.15254 -10.6127 30.9151
RightForeArm  -2.48829 10.3517 7.09113
RightHand  -0.386842 -2.10956 -13.4685
LeftUpLeg  -20.9436 4.89555 1.78865
LeftLeg  44.4116 5.96819 6.64152
LeftFoot  -9.46521 0.110476 -3.22293
LeftToes  1.71891e-010 -1.5102e-010 2.10556e-011
25
root  66.0672 39.2878 -34.745 -165.679 -86.0575 167.172
RightUpLeg  2.44127 -11.3564 -4.06539
RightLeg  15.7293 -5.53115 1.34363
RightFoot  -19.1792 0.0365118 2.42882
RightToes  -1.74624e-010 0 -3.6325e-017
Spine  4.45105 0.733376 10.3758
Spine1  11.4171 2.61662 -4.64262
HEad  -1.07922 0.304629 -6.70408
LeftShoulder1  9.48897 -13.2044 -49.5822
LeftArm  -18.0577 16.5389 -31.1089
LeftForeArm  19.6372 -13.128 -3.28309
LeftHand  -0.244104 0.0205437 5.32207
RightShoulder  7.14909 10.3707 45.0057
RightArm  -3.8617 -11.2305 29.9309
RightForeArm  -2.42403 13.3699 7.1363
RightHand  -0.401266 -2.3246 -14.9516
LeftUpLeg  -23.625 6.33884 -1.14265
LeftLeg  40.7663 6.13667 5.99727
LeftFoot  -8.74527 0.146322 -4.15677
LeftToes  1.71891e-010 -1.5102e-010 2.10556e-011
26
root  65.2684 39.3339 -34.9744 -148.547 -86.0934 150.368
RightUpLeg  4.56976 -10.8528 -5.16103
RightLeg  13.4576 -6.42698 1.81096
RightFoot  -19.2958 0.0552584 2.67331
RightToes  -1.74624e-010 0 -3.6325e-017
Spine  4.85505 0.774894 9.66865
Spine1  11.0233 2.72931 -5.39811
HEad  -0.645936 0.487171 -6.37345
LeftShoulder1  9.31048 -12.9616 -49.3655
LeftArm  -17.4265 17.1669 -29.2842
LeftForeArm  22.2064 -12.7926 -3.23206
LeftHand  -0.244104 0.0205437 5.32207
RightShoulder  7.11987 10.6928 43.7475
RightArm  1.08865 -11.3578 29.5273
RightForeArm  -3.73382 16.2211 6.72037
RightHand  -0.459475 -1.65643 -14.1835
LeftUpLeg  -25.3869 8.34869 -4.03806
LeftLeg  34.6566 7.25352 5.71896
LeftFoot  -7.94249 0.170919 -4.16156
LeftToes  1.71891e-010 -1.5102e-010 2.10556e-011
27
root  64.381 39.264 -35.1841 -138.01 -86.1235 140.267
RightUpLeg  6.33976 -10.4241 -5.678
RightLeg  12.0366 -7.23369 2.14042
RightFoot  -19.6557 0.0627811 2.69729
RightToes  -1.74624e-010 0 -3.6325e-017
Spine  4.59362 0.721659 9.50785
Spine1  11.4626 2.76992 -6.05972
HEad  -0.644712 0.86575 -6.29236
LeftShoulder1  9.04967 -12.6574 -48.8838
LeftArm  -17.1166 17.9819 -27.9445
LeftForeArm  24.0792 -13.4031 -3.16148
LeftHand  -0.244104 0.0205437 5.32207
RightShoulder  7.02038 10.877 42.5121
RightArm  3.37101 -10.0639 29.5194
RightForeArm  -6.18649 17.4108 6.56824
RightHand  -0.514006 -0.835591 -13.0515
LeftUpLeg  -26.7133 10.2375 -6.65527
LeftLeg  27.3301 7.12351 4.36675
LeftFoot  -7.10731 0.185906 -3.87228
LeftToes  1.71891e-010 -1.5102e-010 2.10556e-011
28
root  63.4099 39.1253 -35.3848 -133.494 -85.9794 136.441
RightUpLeg  7.76537 -9.96516 -5.85603
RightLeg  10.9669 -7.80691 2.35692
RightFoot  -20.0775 0.0533435 2.47833
RightToes  -1.74624e-010 0 -3.6325e-017
Spine  4.06023 0.860362 9.43326
Spine1  11.9318 2.99933 -6.65171
HEad  -0.726538 1.01377 -6.20097
LeftShoulder1  8.83832 -12.4593 -48.3314
LeftArm  -17.677 19.1114 -26.8314
LeftForeArm  23.2798 -14.3386 -3.00952
LeftHand  -0.244104 0.0205437 5.32207
RightShoulder  6.82311 10.7056 41.7688
RightArm  4.29747 -7.81557 29.3955
RightForeArm  -9.06475 18.0362 6.55372
RightHand  -0.488285 -0.892706 -12.5624
LeftUpLeg  -27.9102 11.6688 -8.90147
LeftLeg  19.745 5.47076 2.44562
LeftFoot  -5.68122 0.210868 -3.58458
LeftToes  1.71891e-010 -1.5102e-010 2.10556e-011
